500 0 1 0 
58 PRO/ENGINEER BY PARAMETRIC TECHNOLOGY CORPORATION, 2018050 8 ACIS 7.0 24
Sun Apr 30 23:36:42 2023 
25.399999999999999 0.73861288143806814 1e-10 
-0 body $-1 $2 $-1 $1 #
-1 transform $-1 1 0 0 0 1 0 0 0 1 0 0 0 1 rotate no_reflect no_shear #
-2 lump $-1 $399 $3 $0 #
-3 shell $-1 $-1 $-1 $117 $-1 $2 #
-4 straight-curve $-1 -395.62221563001344 191.70500299609208 -79.40681221575619
7261.0601163712035 -8.5265128291212022e-14 5.6843418860808015e-14 F 0 F 1 #
-5 ellipse-curve $-1 6400 0 0 0 0.38268343236508978 0.92387953251128674 0
755.7334575942325 -313.03504767464347 0.58823529411764719 F -1.3143264497833125
F 1.0409497792752499e-16 #
-6 straight-curve $-1 6400 755.73345759423239 -313.03504767464341 -6400 0
-5.6843418860808015e-14 F 0 F 1 #
-7 ellipse-curve $-1 -1.4129559047670085e-12 0 0 0 0.38268343236508978
0.92387953251128674 1.5031479487145316e-12 755.7334575942325
-313.03504767464347 0.49999999999999994 F 2.2051844485946943e-16 F
1.3143264497833136 #
-8 straight-curve $-1 234.97436582286142 205.31987239427178 -30.000000000000007
534.0262829231832 -8.5265128291212022e-14 0 F 0 F 1 #
-9 ellipse-curve $-1 769.00064874604459 7.7595636277145562e-14 0 1
-1.2695255918498512e-17 0 0 205.31987239427167 -30.000000000000004 1 F 0 F
0.29017358984184005 #
-10 straight-curve $-1 234.97436582286139 205.31987239427178 29.999999999999986
534.0262829231832 -8.5265128291212022e-14 0 F 0 F 1 #
-11 ellipse-curve $-1 116.43288222604895 8.5880151077279894e-14 0
0.8660254037844386 -0.50000000000000011 0 -119.80018085684738 -207.5 0
0.8660254037844386 F 2.9965058586688733 F 3.2866794485107129 #
-12 straight-curve $-1 4565.0587196270571 205.31987239427173
-30.000000000000007 1983.7523590846658 -2.8421709430404007e-14 0 F 0 F 1 #
-13 ellipse-curve $-1 6667.3525623085352 2.7145492371043283e-15
-5.1363415798147887e-30 0.86602540378443837 0.50000000000000044 0
119.80018085684787 -207.5 0 0.86602540378443837 F 2.9965058586688733 F
3.2866794485107129 #
-14 straight-curve $-1 4565.0587196270571 205.31987239427178 29.999999999999986
1983.7523590846658 -5.6843418860808015e-14 0 F 0 F 1 #
-15 ellipse-curve $-1 4446.517236030244 3.0908622057049385e-14
-3.4254722772418454e-30 0.86602540378443882 -0.49999999999999956 0
-119.80018085684696 -207.5 0 0.86602540378443882 F 2.9965058586688738 F
3.2866794485107125 #
-16 ellipse-curve $-1 -395.62221563001344 0 0 1 0 0 0 191.70500299609219
-79.406812215756247 1 F 0 F 0.7853981633974485 #
-17 ellipse-curve $-1 9.0192043947523108e-14 0 0 1 0 0 0 755.7334575942325
-313.03504767464335 1 F 0 F 0.7853981633974485 #
-18 ellipse-curve $-1 6400 0 0 1 0 0 0 755.7334575942325 -313.03504767464335 1
F 0 F 0.7853981633974485 #
-19 ellipse-curve $-1 6865.4379007411908 0 0 -1 0 0 0 191.70500299609208
79.40681221575619 1 F 0 F 0.78539816339744839 #
-20 straight-curve $-1 -395.62221563001344 191.70500299609211
79.406812215756162 7261.0601163712035 -1.1368683772161603e-13
-1.4210854715202004e-14 F 0 F 1 #
-21 ellipse-curve $-1 -1.4129559047670085e-12 0 0 0 -0.38268343236508978
0.92387953251128674 1.5031479487145316e-12 755.7334575942325 313.03504767464347
0.49999999999999994 F 2.2051844485946943e-16 F 1.3143264497833136 #
-22 straight-curve $-1 6400 755.73345759423239 313.03504767464347 -6400 0 0 F 0
F 1 #
-23 ellipse-curve $-1 6400 0 0 0 -0.38268343236508978 0.92387953251128674 0
755.7334575942325 313.03504767464347 0.58823529411764719 F -1.3143264497833125
F 1.0409497792752499e-16 #
-24 ellipse-curve $-1 476.73567566500702 424.06274434526972 -30 0 0 1 0 100 0 1
F 0 F 1.0471975511965976 #
-25 straight-curve $-1 669.00064874604459 524.06274434526961 -30
-192.26497308103757 0 0 F 0 F 1 #
-26 ellipse-curve $-1 669.00064874604459 424.06274434526972 -30 0 0 1 100 0 0 1
F 0 F 1.5707963267948966 #
-27 straight-curve $-1 769.00064874604459 205.3198723942717 -30.000000000000007
0 218.74287195099791 7.1054273576010019e-15 F 0 F 1 #
-28 straight-curve $-1 390.13313528656317 474.06274434526961 -30
-155.15876946370176 -268.74287195099782 -7.1054273576010019e-15 F 0 F 1 #
-29 straight-curve $-1 390.13313528656317 474.06274434526961 30 0 0 -60 F 0 F 1
#
-30 ellipse-curve $-1 476.73567566500702 424.06274434526972 30 0 0 -1
-86.602540378443848 50 0 1 F 0 F 1.0471975511965976 #
-31 straight-curve $-1 390.13313528656317 474.06274434526961 30
-155.15876946370176 -268.74287195099782 -1.4210854715202004e-14 F 0 F 1 #
-32 straight-curve $-1 769.00064874604459 205.3198723942717 29.999999999999986
0 218.74287195099791 1.4210854715202004e-14 F 0 F 1 #
-33 ellipse-curve $-1 669.00064874604459 424.06274434526972 30 0 0 -1 0 100 0 1
F 0 F 1.5707963267948966 #
-34 straight-curve $-1 669.00064874604459 524.06274434526961 30
-192.26497308103757 0 0 F 0 F 1 #
-35 straight-curve $-1 769.00064874604459 424.06274434526961 30 0 0 -60 F 0 F 1
#
-36 straight-curve $-1 476.73567566500697 524.06274434526961 30 0 0 -60 F 0 F 1
#
-37 straight-curve $-1 669.00064874604459 524.06274434526961 30 0 0 -60 F 0 F 1
#
-38 ellipse-curve $-1 4889.6699260883524 567.5629746914658 -30 0 0 1 0 100 0 1
F 0 F 1.0471975511966036 #
-39 straight-curve $-1 6195.3323587909472 667.56297469146568 -30
-1305.6624327025947 0 0 F 0 F 1 #
-40 ellipse-curve $-1 6195.3323587909463 517.5629746914658 -30 0 0 1
129.90381056766546 75.000000000000455 0 1 F 0 F 1.0471975511965941 #
-41 straight-curve $-1 6548.811078711723 205.31987239427173 -30.000000000000007
-223.57490935311125 387.24310229719407 7.1054273576010019e-15 F 0 F 1 #
-42 straight-curve $-1 4803.0673857099082 617.56297469146557 -30
-238.00866608285105 -412.24310229719384 -7.1054273576010019e-15 F 0 F 1 #
-43 straight-curve $-1 4803.0673857099082 617.56297469146534 30 0
2.2737367544323206e-13 -60 F 0 F 1 #
-44 ellipse-curve $-1 4889.6699260883524 567.5629746914658 30 0 0 -1
-86.602540378444246 49.999999999999545 0 1 F 0 F 1.0471975511966036 #
-45 straight-curve $-1 4803.0673857099082 617.56297469146534 30
-238.00866608285105 -412.24310229719362 -1.4210854715202004e-14 F 0 F 1 #
-46 straight-curve $-1 6548.811078711723 205.3198723942717 29.999999999999986
-223.57490935311125 387.24310229719435 1.4210854715202004e-14 F 0 F 1 #
-47 ellipse-curve $-1 6195.3323587909463 517.5629746914658 30 0 0 -1 0 150 0 1
F 0 F 1.0471975511965941 #
-48 straight-curve $-1 6195.3323587909454 667.56297469146568 30
-1305.6624327025929 0 0 F 0 F 1 #
-49 straight-curve $-1 6325.2361693586117 592.56297469146602 30 0
-2.2737367544323206e-13 -60 F 0 F 1 #
-50 straight-curve $-1 4889.6699260883524 667.56297469146568 30 0 0 -60 F 0 F 1
#
-51 straight-curve $-1 6195.3323587909454 667.56297469146568 30
1.8189894035458565e-12 0 -60 F 0 F 1 #
-52 point $-1 6400 755.73345759423239 -313.03504767464341 #
-53 vertex $-1 $124 $52 #
-54 point $-1 0 755.73345759423239 -313.03504767464347 #
-55 vertex $-1 $127 $54 #
-56 point $-1 6400 755.73345759423239 313.03504767464347 #
-57 vertex $-1 $190 $56 #
-58 point $-1 0 755.73345759423239 313.03504767464347 #
-59 vertex $-1 $179 $58 #
-60 point $-1 -395.62221563001344 191.70500299609208 -79.40681221575619 #
-61 vertex $-1 $121 $60 #
-62 point $-1 6865.4379007411899 191.70500299609199 -79.406812215756133 #
-63 vertex $-1 $121 $62 #
-64 point $-1 -395.62221563001344 191.70500299609211 79.406812215756162 #
-65 vertex $-1 $138 $64 #
-66 point $-1 6865.4379007411899 191.70500299609199 79.406812215756148 #
-67 vertex $-1 $141 $66 #
-68 point $-1 234.97436582286142 205.31987239427178 -30.000000000000007 #
-69 vertex $-1 $148 $68 #
-70 point $-1 769.00064874604459 205.3198723942717 -30.000000000000007 #
-71 vertex $-1 $148 $70 #
-72 point $-1 234.97436582286139 205.31987239427178 29.999999999999986 #
-73 vertex $-1 $154 $72 #
-74 point $-1 769.00064874604459 205.3198723942717 29.999999999999986 #
-75 vertex $-1 $151 $74 #
-76 point $-1 476.73567566500702 524.06274434526972 -30 #
-77 vertex $-1 $219 $76 #
-78 point $-1 390.13313528656317 474.06274434526972 -30 #
-79 vertex $-1 $219 $78 #
-80 point $-1 390.13313528656317 474.06274434526961 30 #
-81 vertex $-1 $240 $80 #
-82 point $-1 476.73567566500702 524.06274434526972 30 #
-83 vertex $-1 $243 $82 #
-84 point $-1 769.00064874604459 424.06274434526972 -30 #
-85 vertex $-1 $225 $84 #
-86 point $-1 669.00064874604459 524.06274434526972 -30 #
-87 vertex $-1 $222 $86 #
-88 point $-1 669.00064874604459 524.06274434526961 30 #
-89 vertex $-1 $269 $88 #
-90 point $-1 769.00064874604459 424.06274434526972 30 #
-91 vertex $-1 $266 $90 #
-92 point $-1 4565.0587196270571 205.31987239427173 -30.000000000000007 #
-93 vertex $-1 $161 $92 #
-94 point $-1 6548.811078711723 205.3198723942717 -30.000000000000007 #
-95 vertex $-1 $161 $94 #
-96 point $-1 4565.0587196270571 205.31987239427178 29.999999999999986 #
-97 vertex $-1 $167 $96 #
-98 point $-1 6548.811078711723 205.31987239427173 29.999999999999986 #
-99 vertex $-1 $164 $98 #
-100 point $-1 4889.6699260883524 667.5629746914658 -30 #
-101 vertex $-1 $307 $100 #
-102 point $-1 4803.0673857099082 617.56297469146534 -30 #
-103 vertex $-1 $307 $102 #
-104 point $-1 4803.0673857099082 617.56297469146534 30 #
-105 vertex $-1 $328 $104 #
-106 point $-1 4889.6699260883524 667.56297469146591 30 #
-107 vertex $-1 $331 $106 #
-108 point $-1 6325.2361693586117 592.56297469146625 -30 #
-109 vertex $-1 $313 $108 #
-110 point $-1 6195.3323587909463 667.5629746914658 -30 #
-111 vertex $-1 $310 $110 #
-112 point $-1 6195.3323587909454 667.56297469146568 30 #
-113 vertex $-1 $357 $112 #
-114 point $-1 6325.2361693586117 592.56297469146625 30 #
-115 vertex $-1 $354 $114 #
-116 plane-surface $-1 0 0 0 0 0.38268343236508978 0.92387953251128674 0
-0.92387953251128674 0.38268343236508978 forward_v F -830.21000000000004 F
-195.28999999999999 F -540.84341795743751 F 7010.659103068615 #
-117 face $118 $133 $119 $3 $-1 $116 reversed single #
-118 rgb_color-st-attrib $-1 $-1 $-1 $117 0.047058999999999997 1 0.109804 #
-119 loop $-1 $-1 $129 $117 #
-120 coedge $-1 $129 $123 $136 $121 reversed $119 $-1 #
-121 edge $122 $61 0 $63 1 $136 $4 forward 7 unknown #
-122 ptlist-eye-attrib $-1 $-1 $-1 $121 #
-123 coedge $-1 $120 $126 $205 $124 reversed $119 $-1 #
-124 edge $125 $63 -1.3143264497833125 $53 1.0409497792752499e-16 $205 $5
forward 7 unknown #
-125 ptlist-eye-attrib $-1 $-1 $-1 $124 #
-126 coedge $-1 $123 $129 $188 $127 reversed $119 $-1 #
-127 edge $128 $53 0 $55 1 $188 $6 forward 7 unknown #
-128 ptlist-eye-attrib $-1 $-1 $-1 $127 #
-129 coedge $-1 $126 $120 $177 $130 reversed $119 $-1 #
-130 edge $131 $55 2.2051844485946943e-16 $61 1.3143264497833136 $177 $7
forward 7 unknown #
-131 ptlist-eye-attrib $-1 $-1 $-1 $130 #
-132 cone-surface $-1 0 8.7358296314467987e-14 0 1 -1.2695255918498512e-17 0
-2.433744073891912e-15 -191.70500299609199 79.406812215756133 1 I I 0 1 1
forward I I I I #
-133 face $134 $173 $135 $3 $-1 $132 reversed single #
-134 rgb_color-st-attrib $-1 $-1 $-1 $133 1 0.047058999999999997 0.109804 #
-135 loop $-1 $146 $143 $133 #
-136 coedge $-1 $143 $137 $120 $121 forward $135 $-1 #
-137 coedge $-1 $136 $140 $176 $138 reversed $135 $-1 #
-138 edge $139 $61 0 $65 0.7853981633974485 $176 $16 forward 7 unknown #
-139 ptlist-eye-attrib $-1 $-1 $-1 $138 #
-140 coedge $-1 $137 $143 $210 $141 reversed $135 $-1 #
-141 edge $142 $65 0 $67 1 $210 $20 forward 7 unknown #
-142 ptlist-eye-attrib $-1 $-1 $-1 $141 #
-143 coedge $-1 $140 $136 $200 $144 reversed $135 $-1 #
-144 edge $145 $67 0 $63 0.78539816339744839 $200 $19 forward 7 unknown #
-145 ptlist-eye-attrib $-1 $-1 $-1 $144 #
-146 loop $-1 $159 $156 $133 #
-147 coedge $-1 $156 $150 $230 $148 reversed $146 $-1 #
-148 edge $149 $69 0 $71 1 $230 $8 forward 7 unknown #
-149 ptlist-eye-attrib $-1 $-1 $-1 $148 #
-150 coedge $-1 $147 $153 $282 $151 reversed $146 $-1 #
-151 edge $152 $71 0 $75 0.29017358984184005 $282 $9 forward 7 unknown #
-152 ptlist-eye-attrib $-1 $-1 $-1 $151 #
-153 coedge $-1 $150 $156 $264 $154 forward $146 $-1 #
-154 edge $155 $73 0 $75 1 $264 $10 forward 7 unknown #
-155 ptlist-eye-attrib $-1 $-1 $-1 $154 #
-156 coedge $-1 $153 $147 $254 $157 forward $146 $-1 #
-157 edge $158 $69 2.9965058586688733 $73 3.2866794485107129 $254 $11 forward 7
unknown #
-158 ptlist-eye-attrib $-1 $-1 $-1 $157 #
-159 loop $-1 $-1 $169 $133 #
-160 coedge $-1 $169 $163 $318 $161 reversed $159 $-1 #
-161 edge $162 $93 0 $95 1 $318 $12 forward 7 unknown #
-162 ptlist-eye-attrib $-1 $-1 $-1 $161 #
-163 coedge $-1 $160 $166 $370 $164 reversed $159 $-1 #
-164 edge $165 $95 2.9965058586688733 $99 3.2866794485107129 $370 $13 forward 7
unknown #
-165 ptlist-eye-attrib $-1 $-1 $-1 $164 #
-166 coedge $-1 $163 $169 $352 $167 forward $159 $-1 #
-167 edge $168 $97 0 $99 1 $352 $14 forward 7 unknown #
-168 ptlist-eye-attrib $-1 $-1 $-1 $167 #
-169 coedge $-1 $166 $160 $342 $170 forward $159 $-1 #
-170 edge $171 $93 2.9965058586688738 $97 3.2866794485107125 $342 $15 forward 7
unknown #
-171 ptlist-eye-attrib $-1 $-1 $-1 $170 #
-172 spline-surface $-1 forward { exactsur full nurbs 3 3 both open open none
none 2 2 0 3 1 3 0 3 1 3 10.749952256205713 741.42008742497558
-344.90289657916571 1.0489355927565678 10.749952256205704 844.83676268768954
-122.59336779594781 0.98368813574781055 10.749952256205709 844.83676268768852
122.59336779594761 0.98368813574781111 10.749952256205713 741.42008742497546
344.90289657916583 1.0489355927565678 -191.68295056640284 751.07182476330092
-349.39281022120275 0.89187421127781741 -191.68295056640284 855.8347686299644
-124.18927678931817 0.83639652069374593 -191.68295056640284 855.83476862996542
124.18927678931819 0.83639652069374593 -191.68295056640284 751.07182476330081
349.39281022120281 0.89187421127781741 -352.01020207311353 526.74900699117404
-245.03956847519197 0.89187421127781752 -352.0102020731137 600.22237509232548
-87.097633103653564 0.83639652069374559 -352.01020207311348 600.22237509232536
87.097633103653521 0.83639652069374648 -352.01020207311353 526.74900699117393
245.03956847519203 0.89187421127781752 -398.21245298006914 169.21793062802172
-78.718873977963085 1.0489355927565678 -398.21245298006903 192.82122392584088
-27.980083570705006 0.98368813574781055 -398.2124529800692 192.821223925841
27.980083570704963 0.98368813574781111 -398.21245298006914 169.21793062802169
78.718873977963085 1.0489355927565678 0 0 0 0 0 0 0 F 0 F 1 F
-7.8035512795115146e-17 F 1 } I I I I #
-173 face $174 $185 $175 $3 $-1 $172 reversed single #
-174 rgb_color-st-attrib $-1 $-1 $-1 $173 0.047058999999999997 1 0.109804 #
-175 loop $-1 $-1 $181 $173 #
-176 coedge $-1 $181 $177 $137 $138 forward $175 $-1 #
-177 coedge $-1 $176 $178 $129 $130 forward $175 $-1 #
-178 coedge $-1 $177 $181 $195 $179 reversed $175 $-1 #
-179 edge $180 $55 0 $59 0.7853981633974485 $195 $17 forward 7 unknown #
-180 ptlist-eye-attrib $-1 $-1 $-1 $179 #
-181 coedge $-1 $178 $176 $211 $182 reversed $175 $-1 #
-182 edge $183 $59 2.2051844485946943e-16 $65 1.3143264497833136 $211 $21
forward 7 unknown #
-183 ptlist-eye-attrib $-1 $-1 $-1 $182 #
-184 cone-surface $-1 0 0 0 1 0 0 0 -755.7334575942325 313.03504767464347 1 I I
0 1 1 forward I I I I #
-185 face $186 $197 $187 $3 $-1 $184 forward single #
-186 rgb_color-st-attrib $-1 $-1 $-1 $185 0.047058999999999997 1 0.109804 #
-187 loop $-1 $-1 $195 $185 #
-188 coedge $-1 $195 $189 $126 $127 forward $187 $-1 #
-189 coedge $-1 $188 $192 $204 $190 reversed $187 $-1 #
-190 edge $191 $53 0 $57 0.7853981633974485 $204 $18 forward 7 unknown #
-191 ptlist-eye-attrib $-1 $-1 $-1 $190 #
-192 coedge $-1 $189 $195 $212 $193 reversed $187 $-1 #
-193 edge $194 $57 0 $59 1 $212 $22 forward 7 unknown #
-194 ptlist-eye-attrib $-1 $-1 $-1 $193 #
-195 coedge $-1 $192 $188 $178 $179 forward $187 $-1 #
-196 spline-surface $-1 forward { exactsur full nurbs 3 3 both open open none
none 2 2 0 3 1 3 0 3 1 3 6868.4852388000791 169.21793062802135
-78.718873977962886 1.0489355927565678 6868.48523880008 192.82122392584051
-27.980083570704931 0.98368813574781055 6868.4852388000818 192.82122392584054
27.980083570704906 0.98368813574781111 6868.4852388000791 169.21793062802129
78.718873977962971 1.0489355927565678 6814.1296494977805 526.74900699117381
-245.03956847519197 0.89187421127781741 6814.1296494977778 600.22237509232491
-87.09763310365345 0.83639652069374593 6814.1296494977814 600.22237509232548
87.09763310365345 0.83639652069374593 6814.1296494977805 526.74900699117381
245.03956847519211 0.89187421127781741 6625.5093536075328 751.0718247633007
-349.39281022120275 0.89187421127781752 6625.5093536075337 855.83476862996486
-124.18927678931824 0.83639652069374559 6625.5093536075274 855.83476862996406
124.18927678931803 0.83639652069374648 6625.5093536075328 751.07182476330036
349.39281022120292 0.89187421127781752 6387.3529973456407 741.4200874249758
-344.90289657916583 1.0489355927565678 6387.3529973456416 844.83676268768943
-122.59336779594774 0.98368813574781055 6387.3529973456398 844.83676268768909
122.59336779594756 0.98368813574781111 6387.3529973456407 741.42008742497569
344.90289657916617 1.0489355927565678 0 0 0 0 0 0 0 F 0 F 1 F 0 F 1 } I I I I
#
-197 face $198 $207 $199 $3 $-1 $196 reversed single #
-198 rgb_color-st-attrib $-1 $-1 $-1 $197 0.047058999999999997 1 0.109804 #
-199 loop $-1 $-1 $205 $197 #
-200 coedge $-1 $205 $201 $143 $144 forward $199 $-1 #
-201 coedge $-1 $200 $204 $213 $202 reversed $199 $-1 #
-202 edge $203 $67 -1.3143264497833125 $57 1.0409497792752499e-16 $213 $23
forward 7 unknown #
-203 ptlist-eye-attrib $-1 $-1 $-1 $202 #
-204 coedge $-1 $201 $205 $189 $190 forward $199 $-1 #
-205 coedge $-1 $204 $200 $123 $124 forward $199 $-1 #
-206 plane-surface $-1 0 0 0 0 -0.38268343236508978 0.92387953251128674 0
-0.92387953251128674 -0.38268343236508978 forward_v F -830.21000000000004 F
-195.28999999999999 F -540.84341795743751 F 7010.659103068615 #
-207 face $208 $215 $209 $3 $-1 $206 forward single #
-208 rgb_color-st-attrib $-1 $-1 $-1 $207 0.047058999999999997 1 0.109804 #
-209 loop $-1 $-1 $213 $207 #
-210 coedge $-1 $213 $211 $140 $141 forward $209 $-1 #
-211 coedge $-1 $210 $212 $181 $182 forward $209 $-1 #
-212 coedge $-1 $211 $213 $192 $193 forward $209 $-1 #
-213 coedge $-1 $212 $210 $201 $202 forward $209 $-1 #
-214 plane-surface $-1 0 0 -30 0 0 1 1 0 0 forward_v F 224.29384016439766 F
779.68117440450828 F 196.45616326864987 F 532.9264534708916 #
-215 face $216 $235 $217 $3 $-1 $214 forward single #
-216 rgb_color-st-attrib $-1 $-1 $-1 $215 1 0.047058999999999997 0.109804 #
-217 loop $-1 $-1 $231 $215 #
-218 coedge $-1 $231 $221 $238 $219 forward $217 $-1 #
-219 edge $220 $77 0 $79 1.0471975511965976 $238 $24 forward 7 unknown #
-220 ptlist-eye-attrib $-1 $-1 $-1 $219 #
-221 coedge $-1 $218 $224 $301 $222 forward $217 $-1 #
-222 edge $223 $87 0 $77 1 $301 $25 forward 7 unknown #
-223 ptlist-eye-attrib $-1 $-1 $-1 $222 #
-224 coedge $-1 $221 $227 $288 $225 forward $217 $-1 #
-225 edge $226 $85 0 $87 1.5707963267948966 $288 $26 forward 7 unknown #
-226 ptlist-eye-attrib $-1 $-1 $-1 $225 #
-227 coedge $-1 $224 $230 $283 $228 forward $217 $-1 #
-228 edge $229 $71 0 $85 1 $283 $27 forward 7 unknown #
-229 ptlist-eye-attrib $-1 $-1 $-1 $228 #
-230 coedge $-1 $227 $231 $147 $148 forward $217 $-1 #
-231 coedge $-1 $230 $218 $253 $232 forward $217 $-1 #
-232 edge $233 $79 0 $69 1 $253 $28 forward 7 unknown #
-233 ptlist-eye-attrib $-1 $-1 $-1 $232 #
-234 cone-surface $-1 476.73567566500702 424.06274434526972 1161.1531955299167
0 0 -1 -86.602540378443848 50 0 1 I I 0 1 1 forward I I I I #
-235 face $236 $249 $237 $3 $-1 $234 reversed single #
-236 rgb_color-st-attrib $-1 $-1 $-1 $235 1 0.047058999999999997 0.109804 #
-237 loop $-1 $-1 $245 $235 #
-238 coedge $-1 $245 $239 $218 $219 reversed $237 $-1 #
-239 coedge $-1 $238 $242 $252 $240 forward $237 $-1 #
-240 edge $241 $81 0 $79 1 $252 $29 forward 7 unknown #
-241 ptlist-eye-attrib $-1 $-1 $-1 $240 #
-242 coedge $-1 $239 $245 $262 $243 reversed $237 $-1 #
-243 edge $244 $81 0 $83 1.0471975511965976 $262 $30 forward 7 unknown #
-244 ptlist-eye-attrib $-1 $-1 $-1 $243 #
-245 coedge $-1 $242 $238 $298 $246 reversed $237 $-1 #
-246 edge $247 $83 0 $77 1 $298 $36 forward 7 unknown #
-247 ptlist-eye-attrib $-1 $-1 $-1 $246 #
-248 plane-surface $-1 419.00064874604448 524.06274434526972 -30
-0.8660254037844386 0.50000000000000011 0 -0.50000000000000011
-0.8660254037844386 0 forward_v F 48.871317793340737 F 376.91627497198789 F
-8.8637091256218419 F 68.863709125621838 #
-249 face $250 $259 $251 $3 $-1 $248 reversed single #
-250 rgb_color-st-attrib $-1 $-1 $-1 $249 1 0.047058999999999997 0.109804 #
-251 loop $-1 $-1 $255 $249 #
-252 coedge $-1 $255 $253 $239 $240 reversed $251 $-1 #
-253 coedge $-1 $252 $254 $231 $232 reversed $251 $-1 #
-254 coedge $-1 $253 $255 $156 $157 reversed $251 $-1 #
-255 coedge $-1 $254 $252 $263 $256 forward $251 $-1 #
-256 edge $257 $81 0 $73 1 $263 $31 forward 7 unknown #
-257 ptlist-eye-attrib $-1 $-1 $-1 $256 #
-258 plane-surface $-1 0 0 30 0 0 1 1 0 0 forward_v F 224.29384016439766 F
779.68117440450828 F 196.4561632686499 F 532.9264534708916 #
-259 face $260 $275 $261 $3 $-1 $258 reversed single #
-260 rgb_color-st-attrib $-1 $-1 $-1 $259 1 0.047058999999999997 0.109804 #
-261 loop $-1 $-1 $271 $259 #
-262 coedge $-1 $271 $263 $242 $243 forward $261 $-1 #
-263 coedge $-1 $262 $264 $255 $256 reversed $261 $-1 #
-264 coedge $-1 $263 $265 $153 $154 reversed $261 $-1 #
-265 coedge $-1 $264 $268 $281 $266 reversed $261 $-1 #
-266 edge $267 $75 0 $91 1 $281 $32 forward 7 unknown #
-267 ptlist-eye-attrib $-1 $-1 $-1 $266 #
-268 coedge $-1 $265 $271 $292 $269 forward $261 $-1 #
-269 edge $270 $89 0 $91 1.5707963267948966 $292 $33 forward 7 unknown #
-270 ptlist-eye-attrib $-1 $-1 $-1 $269 #
-271 coedge $-1 $268 $262 $299 $272 reversed $261 $-1 #
-272 edge $273 $89 0 $83 1 $299 $34 forward 7 unknown #
-273 ptlist-eye-attrib $-1 $-1 $-1 $272 #
-274 plane-surface $-1 769.00064874604459 0 -30 1 0 0 0 1 0 forward_v F
196.45616326864987 F 432.92645347089154 F -8.8637091256218419 F
68.863709125621838 #
-275 face $276 $285 $277 $3 $-1 $274 reversed single #
-276 rgb_color-st-attrib $-1 $-1 $-1 $275 1 0.047058999999999997 0.109804 #
-277 loop $-1 $-1 $283 $275 #
-278 coedge $-1 $283 $281 $293 $279 forward $277 $-1 #
-279 edge $280 $91 0 $85 1 $293 $35 forward 7 unknown #
-280 ptlist-eye-attrib $-1 $-1 $-1 $279 #
-281 coedge $-1 $278 $282 $265 $266 forward $277 $-1 #
-282 coedge $-1 $281 $283 $150 $151 forward $277 $-1 #
-283 coedge $-1 $282 $278 $227 $228 reversed $277 $-1 #
-284 cone-surface $-1 669.00064874604459 424.06274434526972 1161.1531955299167
0 0 -1 0 100 0 1 I I 0 1 1 forward I I I I #
-285 face $286 $295 $287 $3 $-1 $284 reversed single #
-286 rgb_color-st-attrib $-1 $-1 $-1 $285 1 0.047058999999999997 0.109804 #
-287 loop $-1 $-1 $293 $285 #
-288 coedge $-1 $293 $289 $224 $225 reversed $287 $-1 #
-289 coedge $-1 $288 $292 $300 $290 forward $287 $-1 #
-290 edge $291 $89 0 $87 1 $300 $37 forward 7 unknown #
-291 ptlist-eye-attrib $-1 $-1 $-1 $290 #
-292 coedge $-1 $289 $293 $268 $269 reversed $287 $-1 #
-293 coedge $-1 $292 $288 $278 $279 reversed $287 $-1 #
-294 plane-surface $-1 769.00064874604459 524.06274434526972 -30 0 1 0 -1 0 0
forward_v F 91.136290874378162 F 301.12868220665939 F -8.8637091256218419 F
68.863709125621838 #
-295 face $296 $303 $297 $3 $-1 $294 reversed single #
-296 rgb_color-st-attrib $-1 $-1 $-1 $295 1 0.047058999999999997 0.109804 #
-297 loop $-1 $-1 $301 $295 #
-298 coedge $-1 $301 $299 $245 $246 forward $297 $-1 #
-299 coedge $-1 $298 $300 $271 $272 forward $297 $-1 #
-300 coedge $-1 $299 $301 $289 $290 reversed $297 $-1 #
-301 coedge $-1 $300 $298 $221 $222 reversed $297 $-1 #
-302 plane-surface $-1 0 0 -30 0 0 1 1 0 0 forward_v F 4525.383672445364 F
6588.4861258934161 F 196.07501034832777 F 676.80783673740973 #
-303 face $304 $323 $305 $3 $-1 $302 forward single #
-304 rgb_color-st-attrib $-1 $-1 $-1 $303 1 0.047058999999999997 0.109804 #
-305 loop $-1 $-1 $319 $303 #
-306 coedge $-1 $319 $309 $326 $307 forward $305 $-1 #
-307 edge $308 $101 0 $103 1.0471975511966036 $326 $38 forward 7 unknown #
-308 ptlist-eye-attrib $-1 $-1 $-1 $307 #
-309 coedge $-1 $306 $312 $389 $310 forward $305 $-1 #
-310 edge $311 $111 0 $101 1 $389 $39 forward 7 unknown #
-311 ptlist-eye-attrib $-1 $-1 $-1 $310 #
-312 coedge $-1 $309 $315 $376 $313 forward $305 $-1 #
-313 edge $314 $109 0 $111 1.0471975511965941 $376 $40 forward 7 unknown #
-314 ptlist-eye-attrib $-1 $-1 $-1 $313 #
-315 coedge $-1 $312 $318 $371 $316 forward $305 $-1 #
-316 edge $317 $95 0 $109 1 $371 $41 forward 7 unknown #
-317 ptlist-eye-attrib $-1 $-1 $-1 $316 #
-318 coedge $-1 $315 $319 $160 $161 forward $305 $-1 #
-319 coedge $-1 $318 $306 $341 $320 forward $305 $-1 #
-320 edge $321 $103 0 $93 1 $341 $42 forward 7 unknown #
-321 ptlist-eye-attrib $-1 $-1 $-1 $320 #
-322 cone-surface $-1 4889.6699260883524 567.5629746914658 1161.1531955299167 0
0 -1 -86.602540378444033 49.999999999999758 0 1 I I 0 1 1 forward I I I I #
-323 face $324 $337 $325 $3 $-1 $322 reversed single #
-324 rgb_color-st-attrib $-1 $-1 $-1 $323 1 0.047058999999999997 0.109804 #
-325 loop $-1 $-1 $333 $323 #
-326 coedge $-1 $333 $327 $306 $307 reversed $325 $-1 #
-327 coedge $-1 $326 $330 $340 $328 forward $325 $-1 #
-328 edge $329 $105 0 $103 1 $340 $43 forward 7 unknown #
-329 ptlist-eye-attrib $-1 $-1 $-1 $328 #
-330 coedge $-1 $327 $333 $350 $331 reversed $325 $-1 #
-331 edge $332 $105 0 $107 1.0471975511966036 $350 $44 forward 7 unknown #
-332 ptlist-eye-attrib $-1 $-1 $-1 $331 #
-333 coedge $-1 $330 $326 $386 $334 reversed $325 $-1 #
-334 edge $335 $107 0 $101 1 $386 $50 forward 7 unknown #
-335 ptlist-eye-attrib $-1 $-1 $-1 $334 #
-336 plane-surface $-1 4831.9348991693896 667.5629746914658 -30
-0.86602540378443882 0.49999999999999956 0 -0.49999999999999956
-0.86602540378443882 0 forward_v F 48.214680275648618 F 543.2727057279792 F
-8.8637091256218419 F 68.863709125621838 #
-337 face $338 $347 $339 $3 $-1 $336 reversed single #
-338 rgb_color-st-attrib $-1 $-1 $-1 $337 1 0.047058999999999997 0.109804 #
-339 loop $-1 $-1 $343 $337 #
-340 coedge $-1 $343 $341 $327 $328 reversed $339 $-1 #
-341 coedge $-1 $340 $342 $319 $320 reversed $339 $-1 #
-342 coedge $-1 $341 $343 $169 $170 reversed $339 $-1 #
-343 coedge $-1 $342 $340 $351 $344 forward $339 $-1 #
-344 edge $345 $105 0 $97 1 $351 $45 forward 7 unknown #
-345 ptlist-eye-attrib $-1 $-1 $-1 $344 #
-346 plane-surface $-1 0 0 30 0 0 1 1 0 0 forward_v F 4525.383672445364 F
6588.4861258934161 F 196.07501034832779 F 676.80783673740973 #
-347 face $348 $363 $349 $3 $-1 $346 reversed single #
-348 rgb_color-st-attrib $-1 $-1 $-1 $347 1 0.047058999999999997 0.109804 #
-349 loop $-1 $-1 $359 $347 #
-350 coedge $-1 $359 $351 $330 $331 forward $349 $-1 #
-351 coedge $-1 $350 $352 $343 $344 reversed $349 $-1 #
-352 coedge $-1 $351 $353 $166 $167 reversed $349 $-1 #
-353 coedge $-1 $352 $356 $369 $354 reversed $349 $-1 #
-354 edge $355 $99 0 $115 1 $369 $46 forward 7 unknown #
-355 ptlist-eye-attrib $-1 $-1 $-1 $354 #
-356 coedge $-1 $353 $359 $380 $357 forward $349 $-1 #
-357 edge $358 $113 0 $115 1.0471975511965941 $380 $47 forward 7 unknown #
-358 ptlist-eye-attrib $-1 $-1 $-1 $357 #
-359 coedge $-1 $356 $350 $387 $360 reversed $349 $-1 #
-360 edge $361 $113 0 $107 1 $387 $48 forward 7 unknown #
-361 ptlist-eye-attrib $-1 $-1 $-1 $360 #
-362 plane-surface $-1 6667.3525623085352 0 -30 0.86602540378443837
0.50000000000000044 0 -0.50000000000000044 0.86602540378443837 0 forward_v F
228.13997081950055 F 693.17578227397109 F -8.8637091256218419 F
68.863709125621838 #
-363 face $364 $373 $365 $3 $-1 $362 reversed single #
-364 rgb_color-st-attrib $-1 $-1 $-1 $363 1 0.047058999999999997 0.109804 #
-365 loop $-1 $-1 $371 $363 #
-366 coedge $-1 $371 $369 $381 $367 forward $365 $-1 #
-367 edge $368 $115 0 $109 1 $381 $49 forward 7 unknown #
-368 ptlist-eye-attrib $-1 $-1 $-1 $367 #
-369 coedge $-1 $366 $370 $353 $354 forward $365 $-1 #
-370 coedge $-1 $369 $371 $163 $164 forward $365 $-1 #
-371 coedge $-1 $370 $366 $315 $316 reversed $365 $-1 #
-372 cone-surface $-1 6195.3323587909463 517.5629746914658 1161.1531955299167 0
0 -1 0 150 0 1 I I 0 1 1 forward I I I I #
-373 face $374 $383 $375 $3 $-1 $372 reversed single #
-374 rgb_color-st-attrib $-1 $-1 $-1 $373 1 0.047058999999999997 0.109804 #
-375 loop $-1 $-1 $381 $373 #
-376 coedge $-1 $381 $377 $312 $313 reversed $375 $-1 #
-377 coedge $-1 $376 $380 $388 $378 forward $375 $-1 #
-378 edge $379 $113 0 $111 1 $388 $51 forward 7 unknown #
-379 ptlist-eye-attrib $-1 $-1 $-1 $378 #
-380 coedge $-1 $377 $381 $356 $357 reversed $375 $-1 #
-381 coedge $-1 $380 $376 $366 $367 reversed $375 $-1 #
-382 plane-surface $-1 6281.9348991693896 667.5629746914658 -30 0 1 0 -1 0 0
forward_v F 60.489291724391322 F 1418.3782217350895 F -8.8637091256218419 F
68.863709125621838 #
-383 face $384 $-1 $385 $3 $-1 $382 reversed single #
-384 rgb_color-st-attrib $-1 $-1 $-1 $383 1 0.047058999999999997 0.109804 #
-385 loop $-1 $-1 $389 $383 #
-386 coedge $-1 $389 $387 $333 $334 forward $385 $-1 #
-387 coedge $-1 $386 $388 $359 $360 forward $385 $-1 #
-388 coedge $-1 $387 $389 $377 $378 reversed $385 $-1 #
-389 coedge $-1 $388 $386 $309 $310 reversed $385 $-1 #
-390 plane-surface $-1 0 0 0 1 0 0 0 1 0 forward_v F -36.825552203702784 F
863.68926132932461 F -358.72430900396819 F 358.72430900396785 #
-391 face $-1 $-1 $-1 $3 $-1 $390 forward double out #
-392 plane-surface $-1 0 0 0 0 1 0 0 0 1 forward_v F -358.72430900396819 F
358.72430900396785 F -445.82555220370415 F 6918.0020227919376 #
-393 face $-1 $-1 $-1 $3 $-1 $392 forward double out #
-394 plane-surface $-1 0 0 0 0 0 1 1 0 0 forward_v F -445.82555220370415 F
6918.0020227919376 F -36.825552203702784 F 863.68926132932461 #
-395 face $-1 $-1 $-1 $3 $-1 $394 forward double out #
-396 transform $397 1 0 0 0 1 0 0 0 1 0 0 0 1 rotate no_reflect no_shear #
-397 rgb_color-st-attrib $-1 $-1 $-1 $396 0 0 0 #
-398 straight-curve $-1 -409.00000000000136 0 0 7290.176470588236 0 0 F 0 F 1
#
-399 lump $-1 $-1 $400 $0 #
-400 shell $-1 $-1 $-1 $-1 $401 $399 #
-401 wire $-1 $-1 $406 $400 $-1 out #
-402 point $-1 -409.00000000000136 0 0 #
-403 vertex $-1 $407 $402 #
-404 point $-1 6881.1764705882342 0 0 #
-405 vertex $-1 $407 $404 #
-406 coedge $-1 $406 $406 $-1 $407 forward $401 $-1 #
-407 edge $408 $403 0 $405 1 $406 $398 forward 7 unknown #
-408 rgb_color-st-attrib $-1 $-1 $-1 $407 0 0 0 #
End-of-ACIS-data
